<svg xmlns="http://www.w3.org/2000/svg" viewBox="0 0 192 192" role="img" aria-label="Conecta Lapa"><g transform="translate(96 96) scale(1.16) translate(-90 -62)"><path d="M64 15 C100 6 143 14 152 37 C160 56 150 68 131 69 C119 70 110 67 99 67 C79 67 56 76 47 60 C39 47 47 26 64 15 Z" fill="#38B6FF"/><path d="M55 66 C52 94 78 112 105 110 C133 108 155 92 154 68 C154 96 130 114 102 114 C76 114 53 98 55 66 Z" fill="#E7E5DC"/><path d="M53 64 C51 40 78 33 106 36 C141 39 156 42 154 66 C154 90 133 107 105 107 C81 107 59 96 56 79 C54 73 53 69 53 64 Z" fill="#F1F1F1"/><path d="M116 41 L116 92 C116 99 110 103 103 104 C92 106 84 100 74 104 C66 107 60 108 52 105" fill="none" stroke="#D8CFA6" stroke-width="2.1" stroke-linecap="round" stroke-linejoin="round"/><path d="M105 56 L127 56" fill="none" stroke="#D8CFA6" stroke-width="2.1" stroke-linecap="round"/><ellipse cx="39.00" cy="24.00" rx="3.5" ry="7.4" transform="rotate(0.0 39.00 24.00)" fill="#FFD21E"/><ellipse cx="48.19" cy="26.70" rx="3.5" ry="7.4" transform="rotate(32.7 48.19 26.70)" fill="#FFD21E"/><ellipse cx="54.46" cy="33.94" rx="3.5" ry="7.4" transform="rotate(65.5 54.46 33.94)" fill="#FFD21E"/><ellipse cx="55.83" cy="43.42" rx="3.5" ry="7.4" transform="rotate(98.2 55.83 43.42)" fill="#FFD21E"/><ellipse cx="51.85" cy="52.13" rx="3.5" ry="7.4" transform="rotate(130.9 51.85 52.13)" fill="#FFD21E"/><ellipse cx="43.79" cy="57.31" rx="3.5" ry="7.4" transform="rotate(163.6 43.79 57.31)" fill="#FFD21E"/><ellipse cx="34.21" cy="57.31" rx="3.5" ry="7.4" transform="rotate(196.4 34.21 57.31)" fill="#FFD21E"/><ellipse cx="26.15" cy="52.13" rx="3.5" ry="7.4" transform="rotate(229.1 26.15 52.13)" fill="#FFD21E"/><ellipse cx="22.17" cy="43.42" rx="3.5" ry="7.4" transform="rotate(261.8 22.17 43.42)" fill="#FFD21E"/><ellipse cx="23.54" cy="33.94" rx="3.5" ry="7.4" transform="rotate(294.5 23.54 33.94)" fill="#FFD21E"/><ellipse cx="29.81" cy="26.70" rx="3.5" ry="7.4" transform="rotate(327.3 29.81 26.70)" fill="#FFD21E"/><path d="M39.60 41.00 L39.69 41.14 L39.74 41.31 L39.75 41.50 L39.71 41.71 L39.62 41.93 L39.46 42.12 L39.26 42.29 L39.00 42.42 L38.70 42.49 L38.38 42.50 L38.04 42.44 L37.71 42.29 L37.39 42.07 L37.12 41.78 L36.90 41.42 L36.76 41.00 L36.70 40.54 L36.74 40.06 L36.88 39.58 L37.13 39.13 L37.47 38.71 L37.91 38.36 L38.42 38.10 L39.00 37.94 L39.62 37.90 L40.25 37.98 L40.87 38.20 L41.45 38.55 L41.97 39.02 L42.40 39.59 L42.70 40.26 L42.88 41.00 L42.91 41.78 L42.77 42.56 L42.48 43.33 L42.03 44.03 L41.44 44.65 L40.72 45.15 L39.90 45.51 L39.00 45.70 L38.06 45.71 L37.12 45.53 L36.22 45.16 L35.39 44.61 L34.67 43.90 L34.09 43.03 L33.69 42.06 L33.48 41.00 L33.49 39.90 L33.71 38.81 L34.15 37.76 L34.81 36.81 L35.65 35.98 L36.65 35.33 L37.78 34.88 L39.00 34.66 L40.26 34.68 L41.50 34.95 L42.69 35.47 L43.77 36.23 L44.70 37.19 L45.43 38.34 L45.92 39.62 L46.16 41.00 L46.12 42.42 L45.80 43.82 L45.21 45.15 L44.35 46.35 L43.26 47.38 L41.98 48.18 L40.54 48.73 L39.00 48.98 L37.42 48.93 L35.87 48.56 L34.40 47.89 L33.07 46.93 L31.94 45.72 L31.06 44.29 L30.47 42.70 L30.20 41.00" fill="none" stroke="#EFAF00" stroke-width="2.6" stroke-linecap="round"/><circle cx="39.0" cy="41.0" r="10.5" fill="#FFD21E"/></g></svg>