<svg xmlns="http://www.w3.org/2000/svg" xmlns:xlink="http://www.w3.org/1999/xlink" width="528" zoomAndPan="magnify" viewBox="0 0 396 149.999998" height="200" preserveAspectRatio="xMidYMid meet" version="1.0"><defs><g/><clipPath id="6a4eada738"><rect x="0" width="388" y="0" height="133"/></clipPath></defs><g transform="matrix(1, 0, 0, 1, 5, 13)"><g clip-path="url(#6a4eada738)"><g fill="#4de191" fill-opacity="1"><g transform="translate(4.988738, 85.49521)"><g><path d="M 38.953125 -74.09375 C 41.671875 -74.289062 43.664062 -73.15625 44.9375 -70.6875 C 45.757812 -69.101562 46.171875 -67.171875 46.171875 -64.890625 L 46.171875 -64.796875 C 46.234375 -62.453125 45.851562 -60.007812 45.03125 -57.46875 C 44.207031 -54.9375 43.035156 -52.785156 41.515625 -51.015625 C 41.128906 -50.628906 40.78125 -50.597656 40.46875 -50.921875 C 40.15625 -51.234375 40.125 -51.550781 40.375 -51.875 C 41.832031 -53.519531 42.941406 -55.546875 43.703125 -57.953125 C 44.460938 -60.359375 44.84375 -62.671875 44.84375 -64.890625 C 44.84375 -65.078125 44.757812 -65.484375 44.59375 -66.109375 C 44.4375 -66.742188 44.148438 -67.378906 43.734375 -68.015625 C 43.328125 -68.648438 42.710938 -69 41.890625 -69.0625 C 41.453125 -69.125 40.472656 -68.820312 38.953125 -68.15625 C 37.429688 -67.5 35.59375 -66.425781 33.4375 -64.9375 C 31.28125 -63.445312 29.03125 -61.4375 26.6875 -58.90625 C 24.601562 -56.625 22.359375 -53.644531 19.953125 -49.96875 C 17.546875 -46.289062 15.28125 -41.789062 13.15625 -36.46875 C 11.03125 -31.15625 9.304688 -24.890625 7.984375 -17.671875 C 6.585938 -10.515625 7.820312 -5.507812 11.6875 -2.65625 C 13.394531 -1.332031 15.242188 -0.671875 17.234375 -0.671875 C 19.234375 -0.671875 20.960938 -0.984375 22.421875 -1.609375 C 22.421875 -1.671875 22.484375 -1.703125 22.609375 -1.703125 C 26.347656 -3.359375 30.113281 -5.703125 33.90625 -8.734375 C 37.707031 -11.773438 41.191406 -15.351562 44.359375 -19.46875 C 44.617188 -19.789062 44.9375 -19.820312 45.3125 -19.5625 C 45.695312 -19.25 45.726562 -18.9375 45.40625 -18.625 C 42.6875 -15.007812 39.613281 -11.726562 36.1875 -8.78125 C 32.769531 -5.84375 29.257812 -3.453125 25.65625 -1.609375 L 22.890625 -0.375 L 21.9375 0.09375 C 18.644531 1.425781 15.546875 2.09375 12.640625 2.09375 C 10.609375 2.09375 8.769531 1.710938 7.125 0.953125 C 5.726562 0.316406 4.378906 -0.742188 3.078125 -2.234375 C 1.785156 -3.722656 0.867188 -5.90625 0.328125 -8.78125 C -0.203125 -11.664062 -0.0859375 -15.453125 0.671875 -20.140625 C 1.867188 -26.984375 3.476562 -33.015625 5.5 -38.234375 C 7.53125 -43.460938 9.734375 -47.941406 12.109375 -51.671875 C 14.484375 -55.410156 16.71875 -58.484375 18.8125 -60.890625 C 22.613281 -65.203125 26.347656 -68.445312 30.015625 -70.625 C 33.691406 -72.8125 36.671875 -73.96875 38.953125 -74.09375 Z M 38.953125 -74.09375 "/></g></g></g><g fill="#4de191" fill-opacity="1"><g transform="translate(48.973254, 85.49521)"><g><path d="M 35.625 -19.375 C 35.875 -19 35.8125 -18.6875 35.4375 -18.4375 C 35.375 -18.363281 34.566406 -17.929688 33.015625 -17.140625 C 31.460938 -16.347656 29.578125 -15.703125 27.359375 -15.203125 C 26.660156 -15.078125 25.960938 -14.960938 25.265625 -14.859375 C 24.566406 -14.765625 23.90625 -14.71875 23.28125 -14.71875 C 22.644531 -14.71875 22.039062 -14.765625 21.46875 -14.859375 C 20.894531 -14.960938 20.328125 -15.046875 19.765625 -15.109375 C 18.941406 -12.953125 17.832031 -10.9375 16.4375 -9.0625 C 15.039062 -7.195312 13.394531 -5.820312 11.5 -4.9375 C 10.351562 -4.363281 9.179688 -4.078125 7.984375 -4.078125 C 6.078125 -4.078125 4.394531 -4.679688 2.9375 -5.890625 C 1.675781 -6.960938 0.648438 -8.640625 -0.140625 -10.921875 C -0.929688 -13.203125 -0.882812 -15.957031 0 -19.1875 C 1.070312 -22.925781 2.429688 -26.09375 4.078125 -28.6875 C 5.734375 -31.28125 7.539062 -33.085938 9.5 -34.109375 C 11.53125 -35.117188 13.617188 -35.242188 15.765625 -34.484375 C 19.253906 -33.210938 21.15625 -30.046875 21.46875 -24.984375 C 21.53125 -23.648438 21.46875 -22.269531 21.28125 -20.84375 C 21.09375 -19.425781 20.742188 -17.988281 20.234375 -16.53125 C 21.941406 -16.144531 23.648438 -16.0625 25.359375 -16.28125 C 27.078125 -16.507812 28.628906 -16.890625 30.015625 -17.421875 C 31.410156 -17.960938 32.535156 -18.453125 33.390625 -18.890625 C 34.242188 -19.335938 34.671875 -19.5625 34.671875 -19.5625 C 34.796875 -19.695312 34.96875 -19.726562 35.1875 -19.65625 C 35.414062 -19.59375 35.5625 -19.5 35.625 -19.375 Z M 12.921875 -7.5 C 14.117188 -8.457031 15.175781 -9.644531 16.09375 -11.0625 C 17.019531 -12.488281 17.800781 -13.992188 18.4375 -15.578125 C 18.300781 -15.578125 18.203125 -15.609375 18.140625 -15.671875 C 16.179688 -16.367188 14.410156 -17.664062 12.828125 -19.5625 C 11.617188 -20.957031 10.804688 -22.253906 10.390625 -23.453125 C 9.984375 -24.660156 9.75 -25.707031 9.6875 -26.59375 C 8.226562 -24.695312 7.117188 -22.289062 6.359375 -19.375 C 5.472656 -16.019531 5.332031 -13.328125 5.9375 -11.296875 C 6.539062 -9.273438 7.347656 -7.914062 8.359375 -7.21875 C 9.816406 -6.207031 11.335938 -6.300781 12.921875 -7.5 Z M 18.90625 -16.90625 C 19.34375 -18.238281 19.671875 -19.597656 19.890625 -20.984375 C 20.117188 -22.378906 20.171875 -23.679688 20.046875 -24.890625 C 20.046875 -25.523438 19.960938 -26.253906 19.796875 -27.078125 C 19.640625 -27.898438 19.375 -28.722656 19 -29.546875 C 18.425781 -30.941406 17.445312 -31.539062 16.0625 -31.34375 C 15.800781 -31.34375 15.578125 -31.3125 15.390625 -31.25 C 15.203125 -30.75 15.007812 -29.894531 14.8125 -28.6875 C 14.625 -27.488281 14.546875 -26.160156 14.578125 -24.703125 C 14.609375 -23.242188 14.878906 -21.847656 15.390625 -20.515625 C 16.085938 -18.742188 17.164062 -17.570312 18.625 -17 C 18.6875 -16.9375 18.78125 -16.90625 18.90625 -16.90625 Z M 18.90625 -16.90625 "/></g></g></g><g fill="#4de191" fill-opacity="1"><g transform="translate(82.50787, 85.49521)"><g><path d="M 32.6875 -19.671875 C 32.875 -19.597656 33.015625 -19.46875 33.109375 -19.28125 C 33.203125 -19.09375 33.1875 -18.9375 33.0625 -18.8125 C 32.488281 -17.101562 31.710938 -15.21875 30.734375 -13.15625 C 29.753906 -11.09375 28.707031 -9.207031 27.59375 -7.5 C 26.488281 -5.789062 25.394531 -4.523438 24.3125 -3.703125 L 24.125 -3.609375 C 23.8125 -3.234375 23.351562 -2.820312 22.75 -2.375 C 22.144531 -1.925781 21.367188 -1.703125 20.421875 -1.703125 C 19.847656 -1.703125 19.085938 -1.863281 18.140625 -2.1875 C 16.878906 -2.6875 16.054688 -3.363281 15.671875 -4.21875 C 15.296875 -5.082031 15.109375 -6.238281 15.109375 -7.6875 C 15.171875 -9.84375 15.515625 -12.378906 16.140625 -15.296875 C 16.773438 -18.210938 17.519531 -21.109375 18.375 -23.984375 C 19.238281 -26.867188 19.984375 -29.289062 20.609375 -31.25 L 21.46875 -34.109375 C 21.851562 -35.429688 21.851562 -36.285156 21.46875 -36.671875 C 21.28125 -36.796875 20.992188 -36.828125 20.609375 -36.765625 C 20.234375 -36.703125 19.882812 -36.609375 19.5625 -36.484375 C 19.1875 -36.222656 18.789062 -35.921875 18.375 -35.578125 C 17.96875 -35.234375 17.539062 -34.804688 17.09375 -34.296875 C 15.644531 -32.835938 14.253906 -31.125 12.921875 -29.15625 C 11.585938 -27.195312 10.398438 -25.203125 9.359375 -23.171875 C 8.316406 -21.148438 7.492188 -19.316406 6.890625 -17.671875 C 6.285156 -16.023438 5.984375 -14.757812 5.984375 -13.875 C 6.046875 -12.351562 6.125 -10.925781 6.21875 -9.59375 C 6.3125 -8.257812 6.425781 -7.148438 6.5625 -6.265625 C 6.6875 -5.765625 6.523438 -5.351562 6.078125 -5.03125 C 5.828125 -4.65625 5.445312 -4.46875 4.9375 -4.46875 L 4.84375 -4.46875 L 4.28125 -4.5625 C 2.632812 -4.6875 1.585938 -5.570312 1.140625 -7.21875 C 0.691406 -9.25 0.375 -11.5625 0.1875 -14.15625 C 0 -16.75 -0.0625 -19.390625 0 -22.078125 C 0.0625 -24.773438 0.203125 -27.3125 0.421875 -29.6875 C 0.648438 -32.0625 0.953125 -34.039062 1.328125 -35.625 C 1.515625 -36.132812 1.832031 -36.484375 2.28125 -36.671875 C 2.789062 -36.859375 3.265625 -36.828125 3.703125 -36.578125 L 5.421875 -35.53125 C 6.046875 -35.144531 6.5 -34.601562 6.78125 -33.90625 C 7.070312 -33.21875 7.125 -32.523438 6.9375 -31.828125 C 6.613281 -30.179688 6.375 -28.234375 6.21875 -25.984375 C 6.0625 -23.734375 5.953125 -21.4375 5.890625 -19.09375 C 6.960938 -21.6875 8.414062 -24.519531 10.25 -27.59375 C 12.09375 -30.664062 14.03125 -33.25 16.0625 -35.34375 C 18.394531 -37.6875 20.453125 -38.859375 22.234375 -38.859375 C 23.691406 -38.859375 24.863281 -38.191406 25.75 -36.859375 C 26.632812 -35.523438 27.140625 -34.097656 27.265625 -32.578125 C 27.328125 -32.078125 27.164062 -31.113281 26.78125 -29.6875 C 26.40625 -28.257812 25.867188 -26.34375 25.171875 -23.9375 C 24.734375 -22.226562 24.242188 -20.390625 23.703125 -18.421875 C 23.160156 -16.460938 22.679688 -14.546875 22.265625 -12.671875 C 21.859375 -10.804688 21.59375 -9.175781 21.46875 -7.78125 C 21.34375 -6.394531 21.4375 -5.414062 21.75 -4.84375 C 22.007812 -4.332031 22.234375 -4.175781 22.421875 -4.375 C 22.734375 -4.375 23.019531 -4.5 23.28125 -4.75 C 23.34375 -4.75 23.40625 -4.78125 23.46875 -4.84375 C 24.226562 -5.476562 25.113281 -6.523438 26.125 -7.984375 C 27.132812 -9.441406 28.144531 -11.164062 29.15625 -13.15625 C 30.175781 -15.15625 31.035156 -17.195312 31.734375 -19.28125 C 31.984375 -19.664062 32.300781 -19.796875 32.6875 -19.671875 Z M 32.6875 -19.671875 "/></g></g></g><g fill="#4de191" fill-opacity="1"><g transform="translate(114.142498, 85.49521)"><g><path d="M 29.453125 -19.46875 C 29.765625 -19.21875 29.828125 -18.875 29.640625 -18.4375 C 25.835938 -13.425781 22.554688 -9.585938 19.796875 -6.921875 C 17.046875 -4.265625 14.4375 -2.492188 11.96875 -1.609375 C 11.96875 -1.546875 11.953125 -1.515625 11.921875 -1.515625 C 11.890625 -1.515625 11.875 -1.515625 11.875 -1.515625 C 10.351562 -1.015625 8.925781 -0.765625 7.59375 -0.765625 C 6.582031 -0.765625 5.394531 -1.078125 4.03125 -1.703125 C 2.675781 -2.335938 1.457031 -3.414062 0.375 -4.9375 C -0.445312 -6.207031 -1.0625 -7.984375 -1.46875 -10.265625 C -1.882812 -12.546875 -1.394531 -15.488281 0 -19.09375 C 2.34375 -25.113281 4.9375 -29.34375 7.78125 -31.78125 C 10.632812 -34.21875 13.140625 -35.4375 15.296875 -35.4375 C 17.390625 -35.4375 19.003906 -34.519531 20.140625 -32.6875 C 20.265625 -32.488281 20.375 -32.296875 20.46875 -32.109375 C 20.5625 -31.921875 20.640625 -31.664062 20.703125 -31.34375 C 20.835938 -30.96875 20.90625 -30.65625 20.90625 -30.40625 C 21.03125 -29.769531 21.007812 -29.023438 20.84375 -28.171875 C 20.6875 -27.316406 20.359375 -26.347656 19.859375 -25.265625 C 18.710938 -23.179688 17.238281 -21.535156 15.4375 -20.328125 C 13.632812 -19.128906 11.925781 -18.273438 10.3125 -17.765625 C 8.695312 -17.253906 7.570312 -16.9375 6.9375 -16.8125 C 5.988281 -14.09375 5.546875 -11.578125 5.609375 -9.265625 C 5.671875 -6.953125 6.207031 -5.191406 7.21875 -3.984375 C 8.289062 -2.722656 9.71875 -2.34375 11.5 -2.84375 L 11.59375 -2.84375 C 13.613281 -3.601562 15.9375 -5.203125 18.5625 -7.640625 C 21.195312 -10.085938 24.507812 -13.96875 28.5 -19.28125 C 28.8125 -19.601562 29.128906 -19.664062 29.453125 -19.46875 Z M 7.6875 -18.71875 L 7.5 -18.4375 C 8.382812 -18.625 9.523438 -18.984375 10.921875 -19.515625 C 12.316406 -20.054688 13.726562 -20.847656 15.15625 -21.890625 C 16.582031 -22.941406 17.738281 -24.289062 18.625 -25.9375 C 19.632812 -27.832031 19.882812 -29.507812 19.375 -30.96875 L 18.8125 -31.734375 C 18.300781 -32.046875 17.726562 -32.078125 17.09375 -31.828125 C 16.082031 -31.503906 14.769531 -30.441406 13.15625 -28.640625 C 11.539062 -26.835938 9.71875 -23.53125 7.6875 -18.71875 Z M 7.6875 -18.71875 "/></g></g></g><g fill="#4de191" fill-opacity="1"><g transform="translate(142.452165, 85.49521)"><g><path d="M 33.625 -19.5625 C 34.007812 -19.3125 34.070312 -19 33.8125 -18.625 C 29.507812 -12.851562 25.773438 -8.445312 22.609375 -5.40625 C 19.441406 -2.375 16.46875 -0.316406 13.6875 0.765625 L 13.484375 0.765625 C 11.898438 1.328125 10.285156 1.609375 8.640625 1.609375 C 7.503906 1.609375 6.160156 1.257812 4.609375 0.5625 C 3.054688 -0.125 1.675781 -1.328125 0.46875 -3.046875 C -0.476562 -4.492188 -1.171875 -6.53125 -1.609375 -9.15625 C -2.054688 -11.789062 -1.488281 -15.164062 0.09375 -19.28125 C 1.925781 -24.09375 3.875 -27.84375 5.9375 -30.53125 C 8 -33.226562 10.007812 -35.097656 11.96875 -36.140625 C 13.9375 -37.191406 15.644531 -37.625 17.09375 -37.4375 C 18.9375 -37.113281 20.300781 -36.320312 21.1875 -35.0625 C 22.769531 -33.09375 23.242188 -30.300781 22.609375 -26.6875 C 22.609375 -26.25 22.351562 -26.03125 21.84375 -26.03125 C 21.34375 -26.15625 21.15625 -26.441406 21.28125 -26.890625 C 21.46875 -28.472656 21.46875 -29.894531 21.28125 -31.15625 C 21.28125 -31.21875 21.117188 -31.597656 20.796875 -32.296875 C 20.484375 -32.992188 19.914062 -33.4375 19.09375 -33.625 C 18.71875 -33.75 17.988281 -33.460938 16.90625 -32.765625 C 15.832031 -32.078125 14.535156 -30.65625 13.015625 -28.5 C 11.492188 -26.34375 9.816406 -23.082031 7.984375 -18.71875 C 6.523438 -15.226562 5.765625 -11.976562 5.703125 -8.96875 C 5.640625 -5.96875 6.300781 -3.644531 7.6875 -2 C 9.144531 -0.476562 10.953125 0 13.109375 -0.5625 L 13.203125 -0.5625 C 15.546875 -1.457031 18.222656 -3.296875 21.234375 -6.078125 C 24.242188 -8.867188 28.0625 -13.332031 32.6875 -19.46875 C 32.9375 -19.789062 33.25 -19.820312 33.625 -19.5625 Z M 33.625 -19.5625 "/></g></g></g><g fill="#4de191" fill-opacity="1"><g transform="translate(174.846801, 85.49521)"><g><path d="M 25.359375 -19.375 C 25.742188 -19.1875 25.84375 -18.875 25.65625 -18.4375 C 25.59375 -18.238281 25.144531 -17.363281 24.3125 -15.8125 C 23.488281 -14.257812 22.441406 -12.359375 21.171875 -10.109375 C 19.910156 -7.867188 18.503906 -5.640625 16.953125 -3.421875 C 15.398438 -1.203125 13.832031 0.664062 12.25 2.1875 L 12.15625 2.1875 C 11.207031 3.132812 10.289062 3.863281 9.40625 4.375 C 8.644531 4.75 7.726562 4.9375 6.65625 4.9375 C 6.207031 4.9375 5.773438 4.90625 5.359375 4.84375 C 4.953125 4.78125 4.5625 4.65625 4.1875 4.46875 C 3.550781 4.207031 2.851562 3.757812 2.09375 3.125 C 1.332031 2.5 0.726562 1.582031 0.28125 0.375 C -0.21875 -1.007812 -0.546875 -2.695312 -0.703125 -4.6875 C -0.867188 -6.6875 -0.835938 -9.238281 -0.609375 -12.34375 C -0.390625 -15.445312 -0.03125 -19.3125 0.46875 -23.9375 C 0.914062 -27.675781 1.457031 -31.285156 2.09375 -34.765625 C 2.726562 -38.253906 3.425781 -41.550781 4.1875 -44.65625 L -1.703125 -45.984375 C -6.453125 -47.179688 -9.90625 -47.082031 -12.0625 -45.6875 C -12.820312 -45.1875 -13.265625 -44.554688 -13.390625 -43.796875 C -13.515625 -43.285156 -13.800781 -43.09375 -14.25 -43.21875 C -14.757812 -43.351562 -14.945312 -43.640625 -14.8125 -44.078125 C -14.625 -45.148438 -13.960938 -46.066406 -12.828125 -46.828125 C -10.296875 -48.410156 -6.492188 -48.570312 -1.421875 -47.3125 C -0.597656 -47.125 0.300781 -46.914062 1.28125 -46.6875 C 2.257812 -46.46875 3.351562 -46.234375 4.5625 -45.984375 C 6.207031 -52.191406 8.101562 -57.367188 10.25 -61.515625 C 12.40625 -65.660156 14.65625 -68.398438 17 -69.734375 C 18.84375 -70.679688 20.585938 -70.773438 22.234375 -70.015625 C 23.554688 -69.316406 24.410156 -68.113281 24.796875 -66.40625 L 24.796875 -66.3125 C 25.304688 -63.90625 24.972656 -60.675781 23.796875 -56.625 C 22.628906 -52.570312 21.0625 -48.390625 19.09375 -44.078125 C 22.257812 -43.828125 25.410156 -43.828125 28.546875 -44.078125 C 31.679688 -44.328125 34.515625 -44.960938 37.046875 -45.984375 C 37.554688 -46.109375 37.875 -45.945312 38 -45.5 C 38.125 -45.0625 38 -44.78125 37.625 -44.65625 C 35.65625 -43.832031 33.46875 -43.257812 31.0625 -42.9375 C 28.65625 -42.625 26.1875 -42.46875 23.65625 -42.46875 C 22.832031 -42.46875 21.976562 -42.484375 21.09375 -42.515625 C 20.207031 -42.546875 19.320312 -42.59375 18.4375 -42.65625 C 16.65625 -38.789062 14.703125 -35.128906 12.578125 -31.671875 C 10.460938 -28.222656 8.488281 -25.488281 6.65625 -23.46875 C 6.65625 -23.40625 6.625 -23.375 6.5625 -23.375 C 5.800781 -18.5625 5.351562 -14.585938 5.21875 -11.453125 C 5.09375 -8.316406 5.15625 -5.828125 5.40625 -3.984375 C 5.664062 -2.148438 6.015625 -0.804688 6.453125 0.046875 C 6.898438 0.898438 7.347656 1.453125 7.796875 1.703125 C 8.617188 2.148438 9.410156 2.164062 10.171875 1.75 C 10.929688 1.34375 11.3125 1.140625 11.3125 1.140625 C 12.820312 -0.316406 14.335938 -2.171875 15.859375 -4.421875 C 17.378906 -6.671875 18.789062 -8.898438 20.09375 -11.109375 C 21.394531 -13.328125 22.441406 -15.195312 23.234375 -16.71875 C 24.023438 -18.238281 24.421875 -19 24.421875 -19 C 24.671875 -19.445312 24.984375 -19.570312 25.359375 -19.375 Z M 22.421875 -66.6875 C 21.660156 -66.6875 20.660156 -66.019531 19.421875 -64.6875 C 18.191406 -63.363281 16.847656 -61.132812 15.390625 -58 C 13.929688 -54.863281 12.472656 -50.507812 11.015625 -44.9375 C 12.097656 -44.75 13.175781 -44.601562 14.25 -44.5 C 15.320312 -44.40625 16.429688 -44.296875 17.578125 -44.171875 C 19.535156 -48.421875 21.113281 -52.539062 22.3125 -56.53125 C 23.519531 -60.519531 23.90625 -63.6875 23.46875 -66.03125 C 23.34375 -66.46875 22.992188 -66.6875 22.421875 -66.6875 Z M 7.5 -29.0625 C 7.4375 -28.5625 7.359375 -28.054688 7.265625 -27.546875 C 7.171875 -27.046875 7.09375 -26.539062 7.03125 -26.03125 C 8.613281 -28.050781 10.273438 -30.535156 12.015625 -33.484375 C 13.753906 -36.429688 15.414062 -39.550781 17 -42.84375 C 15.925781 -42.96875 14.847656 -43.078125 13.765625 -43.171875 C 12.691406 -43.265625 11.648438 -43.378906 10.640625 -43.515625 C 9.628906 -39.523438 8.582031 -34.707031 7.5 -29.0625 Z M 7.5 -29.0625 "/></g></g></g><g fill="#4de191" fill-opacity="1"><g transform="translate(199.261515, 85.49521)"><g><path d="M 34.484375 -19.671875 C 34.796875 -19.597656 35.019531 -19.3125 35.15625 -18.8125 C 35.15625 -18.8125 34.992188 -18.160156 34.671875 -16.859375 C 34.359375 -15.566406 33.945312 -13.9375 33.4375 -11.96875 C 32.9375 -10.007812 32.335938 -7.953125 31.640625 -5.796875 C 28.722656 2.691406 25.804688 6.9375 22.890625 6.9375 L 22.515625 6.9375 C 20.929688 6.75 19.664062 5.832031 18.71875 4.1875 C 17.894531 2.726562 17.304688 0.953125 16.953125 -1.140625 C 16.609375 -3.234375 16.4375 -5.398438 16.4375 -7.640625 C 16.4375 -9.890625 16.5 -11.9375 16.625 -13.78125 C 16.175781 -12.570312 15.679688 -11.507812 15.140625 -10.59375 C 14.609375 -9.675781 14.085938 -8.835938 13.578125 -8.078125 C 13.578125 -8.015625 13.5625 -7.984375 13.53125 -7.984375 C 13.5 -7.984375 13.484375 -7.953125 13.484375 -7.890625 C 13.296875 -7.828125 13.171875 -7.695312 13.109375 -7.5 C 11.972656 -5.914062 10.816406 -4.789062 9.640625 -4.125 C 8.472656 -3.46875 7.347656 -3.140625 6.265625 -3.140625 C 5.828125 -3.140625 5.476562 -3.171875 5.21875 -3.234375 C 4.84375 -3.359375 4.226562 -3.609375 3.375 -3.984375 C 2.519531 -4.367188 1.710938 -5.128906 0.953125 -6.265625 C 0.316406 -7.410156 -0.1875 -9.117188 -0.5625 -11.390625 C -0.945312 -13.671875 -0.664062 -16.773438 0.28125 -20.703125 C 1.164062 -23.867188 2.222656 -26.367188 3.453125 -28.203125 C 4.691406 -30.046875 5.945312 -31.441406 7.21875 -32.390625 C 8.488281 -33.335938 9.566406 -33.972656 10.453125 -34.296875 C 12.472656 -35.054688 14.242188 -35.117188 15.765625 -34.484375 C 17.609375 -33.597656 18.8125 -31.984375 19.375 -29.640625 L 19.375 -29.453125 C 19.945312 -31.535156 20.582031 -33.460938 21.28125 -35.234375 C 21.976562 -37.015625 22.644531 -38.539062 23.28125 -39.8125 C 23.71875 -40.375 24.253906 -40.6875 24.890625 -40.75 C 25.648438 -40.75 26.285156 -40.5 26.796875 -40 L 28.21875 -38.671875 C 28.976562 -38.035156 29.46875 -37.273438 29.6875 -36.390625 C 29.90625 -35.503906 29.859375 -34.679688 29.546875 -33.921875 C 28.148438 -30.617188 26.894531 -26.894531 25.78125 -22.75 C 24.675781 -18.601562 23.875 -14.472656 23.375 -10.359375 C 22.738281 -5.734375 22.5625 -2.390625 22.84375 -0.328125 C 23.132812 1.722656 23.4375 2.847656 23.75 3.046875 C 24.445312 3.421875 25.0625 3.367188 25.59375 2.890625 C 26.132812 2.421875 26.535156 2.0625 26.796875 1.8125 C 27.742188 0.09375 28.660156 -1.984375 29.546875 -4.421875 C 30.429688 -6.859375 31.222656 -9.390625 31.921875 -12.015625 C 32.617188 -14.640625 33.1875 -17.0625 33.625 -19.28125 C 33.75 -19.664062 34.035156 -19.796875 34.484375 -19.671875 Z M 18.53125 -25.65625 C 18.53125 -26.976562 18.367188 -28.179688 18.046875 -29.265625 C 17.859375 -29.765625 17.539062 -30.25 17.09375 -30.71875 C 16.65625 -31.195312 16.179688 -31.472656 15.671875 -31.546875 C 15.234375 -31.609375 14.503906 -31.367188 13.484375 -30.828125 C 12.472656 -30.285156 11.425781 -29.160156 10.34375 -27.453125 C 9.269531 -25.742188 8.382812 -23.179688 7.6875 -19.765625 C 6.9375 -16.148438 6.578125 -13.472656 6.609375 -11.734375 C 6.640625 -9.992188 6.859375 -8.851562 7.265625 -8.3125 C 7.679688 -7.769531 8.015625 -7.40625 8.265625 -7.21875 C 8.640625 -6.96875 9.222656 -6.921875 10.015625 -7.078125 C 10.804688 -7.234375 11.582031 -7.816406 12.34375 -8.828125 C 14.125 -11.367188 15.835938 -15.046875 17.484375 -19.859375 C 17.609375 -20.867188 17.75 -21.847656 17.90625 -22.796875 C 18.0625 -23.742188 18.269531 -24.695312 18.53125 -25.65625 Z M 18.53125 -25.65625 "/></g></g></g><g fill="#464646" fill-opacity="1"><g transform="translate(233.02615, 85.49521)"><g><path d="M 46.640625 -19.46875 C 46.898438 -19.851562 47.21875 -19.851562 47.59375 -19.46875 C 47.976562 -19.21875 47.976562 -18.90625 47.59375 -18.53125 C 45.125 -15.988281 42.445312 -14.164062 39.5625 -13.0625 C 36.6875 -11.957031 33.773438 -11.257812 30.828125 -10.96875 C 27.878906 -10.6875 24.984375 -10.515625 22.140625 -10.453125 C 21.441406 -10.453125 20.726562 -10.4375 20 -10.40625 C 19.269531 -10.375 18.554688 -10.359375 17.859375 -10.359375 C 16.085938 -5.921875 14.347656 -2.65625 12.640625 -0.5625 C 11.367188 1.019531 10.066406 2.15625 8.734375 2.84375 C 7.410156 3.539062 6.175781 3.890625 5.03125 3.890625 C 3.832031 3.890625 2.851562 3.609375 2.09375 3.046875 C 0.945312 2.410156 0.28125 1.425781 0.09375 0.09375 C 0.03125 0.03125 0 -0.015625 0 -0.046875 C 0 -0.078125 0 -0.09375 0 -0.09375 L 0 -0.375 C -0.125 -1.257812 0.0625 -2.148438 0.5625 -3.046875 C 1.832031 -5.453125 3.367188 -7.238281 5.171875 -8.40625 C 6.984375 -9.582031 8.960938 -10.421875 11.109375 -10.921875 C 12.566406 -14.597656 14.195312 -19.410156 16 -25.359375 C 17.8125 -31.316406 19.664062 -38.207031 21.5625 -46.03125 C 23.46875 -53.851562 25.242188 -62.320312 26.890625 -71.4375 C 27.015625 -71.882812 27.265625 -72.171875 27.640625 -72.296875 C 28.335938 -72.546875 29.238281 -72.398438 30.34375 -71.859375 C 31.457031 -71.328125 32.269531 -70.835938 32.78125 -70.390625 C 33.46875 -69.828125 33.75 -69.289062 33.625 -68.78125 C 33.1875 -66.6875 32.601562 -63.945312 31.875 -60.5625 C 31.144531 -57.175781 30.285156 -53.40625 29.296875 -49.25 C 28.316406 -45.101562 27.238281 -40.8125 26.0625 -36.375 C 24.894531 -31.945312 23.675781 -27.609375 22.40625 -23.359375 C 21.144531 -19.117188 19.820312 -15.257812 18.4375 -11.78125 C 19.0625 -11.78125 19.675781 -11.796875 20.28125 -11.828125 C 20.882812 -11.859375 21.503906 -11.875 22.140625 -11.875 C 24.984375 -11.9375 27.828125 -12.09375 30.671875 -12.34375 C 33.523438 -12.601562 36.3125 -13.253906 39.03125 -14.296875 C 41.757812 -15.335938 44.296875 -17.0625 46.640625 -19.46875 Z M 8.078125 -4.5625 C 8.390625 -5.0625 8.75 -5.707031 9.15625 -6.5 C 9.570312 -7.289062 10.003906 -8.226562 10.453125 -9.3125 C 8.679688 -8.800781 7.066406 -8.023438 5.609375 -6.984375 C 4.148438 -5.941406 2.882812 -4.40625 1.8125 -2.375 C 1.425781 -1.738281 1.296875 -1.007812 1.421875 -0.1875 C 1.546875 0.25 1.769531 0.46875 2.09375 0.46875 C 2.53125 0.53125 3.285156 0.203125 4.359375 -0.515625 C 5.441406 -1.242188 6.679688 -2.59375 8.078125 -4.5625 Z M 8.078125 -4.5625 "/></g></g></g><g fill="#464646" fill-opacity="1"><g transform="translate(279.195648, 85.49521)"><g><path d="M 34.484375 -19.671875 C 34.796875 -19.597656 35.019531 -19.3125 35.15625 -18.8125 C 35.15625 -18.8125 34.992188 -18.160156 34.671875 -16.859375 C 34.359375 -15.566406 33.945312 -13.9375 33.4375 -11.96875 C 32.9375 -10.007812 32.335938 -7.953125 31.640625 -5.796875 C 28.722656 2.691406 25.804688 6.9375 22.890625 6.9375 L 22.515625 6.9375 C 20.929688 6.75 19.664062 5.832031 18.71875 4.1875 C 17.894531 2.726562 17.304688 0.953125 16.953125 -1.140625 C 16.609375 -3.234375 16.4375 -5.398438 16.4375 -7.640625 C 16.4375 -9.890625 16.5 -11.9375 16.625 -13.78125 C 16.175781 -12.570312 15.679688 -11.507812 15.140625 -10.59375 C 14.609375 -9.675781 14.085938 -8.835938 13.578125 -8.078125 C 13.578125 -8.015625 13.5625 -7.984375 13.53125 -7.984375 C 13.5 -7.984375 13.484375 -7.953125 13.484375 -7.890625 C 13.296875 -7.828125 13.171875 -7.695312 13.109375 -7.5 C 11.972656 -5.914062 10.816406 -4.789062 9.640625 -4.125 C 8.472656 -3.46875 7.347656 -3.140625 6.265625 -3.140625 C 5.828125 -3.140625 5.476562 -3.171875 5.21875 -3.234375 C 4.84375 -3.359375 4.226562 -3.609375 3.375 -3.984375 C 2.519531 -4.367188 1.710938 -5.128906 0.953125 -6.265625 C 0.316406 -7.410156 -0.1875 -9.117188 -0.5625 -11.390625 C -0.945312 -13.671875 -0.664062 -16.773438 0.28125 -20.703125 C 1.164062 -23.867188 2.222656 -26.367188 3.453125 -28.203125 C 4.691406 -30.046875 5.945312 -31.441406 7.21875 -32.390625 C 8.488281 -33.335938 9.566406 -33.972656 10.453125 -34.296875 C 12.472656 -35.054688 14.242188 -35.117188 15.765625 -34.484375 C 17.609375 -33.597656 18.8125 -31.984375 19.375 -29.640625 L 19.375 -29.453125 C 19.945312 -31.535156 20.582031 -33.460938 21.28125 -35.234375 C 21.976562 -37.015625 22.644531 -38.539062 23.28125 -39.8125 C 23.71875 -40.375 24.253906 -40.6875 24.890625 -40.75 C 25.648438 -40.75 26.285156 -40.5 26.796875 -40 L 28.21875 -38.671875 C 28.976562 -38.035156 29.46875 -37.273438 29.6875 -36.390625 C 29.90625 -35.503906 29.859375 -34.679688 29.546875 -33.921875 C 28.148438 -30.617188 26.894531 -26.894531 25.78125 -22.75 C 24.675781 -18.601562 23.875 -14.472656 23.375 -10.359375 C 22.738281 -5.734375 22.5625 -2.390625 22.84375 -0.328125 C 23.132812 1.722656 23.4375 2.847656 23.75 3.046875 C 24.445312 3.421875 25.0625 3.367188 25.59375 2.890625 C 26.132812 2.421875 26.535156 2.0625 26.796875 1.8125 C 27.742188 0.09375 28.660156 -1.984375 29.546875 -4.421875 C 30.429688 -6.859375 31.222656 -9.390625 31.921875 -12.015625 C 32.617188 -14.640625 33.1875 -17.0625 33.625 -19.28125 C 33.75 -19.664062 34.035156 -19.796875 34.484375 -19.671875 Z M 18.53125 -25.65625 C 18.53125 -26.976562 18.367188 -28.179688 18.046875 -29.265625 C 17.859375 -29.765625 17.539062 -30.25 17.09375 -30.71875 C 16.65625 -31.195312 16.179688 -31.472656 15.671875 -31.546875 C 15.234375 -31.609375 14.503906 -31.367188 13.484375 -30.828125 C 12.472656 -30.285156 11.425781 -29.160156 10.34375 -27.453125 C 9.269531 -25.742188 8.382812 -23.179688 7.6875 -19.765625 C 6.9375 -16.148438 6.578125 -13.472656 6.609375 -11.734375 C 6.640625 -9.992188 6.859375 -8.851562 7.265625 -8.3125 C 7.679688 -7.769531 8.015625 -7.40625 8.265625 -7.21875 C 8.640625 -6.96875 9.222656 -6.921875 10.015625 -7.078125 C 10.804688 -7.234375 11.582031 -7.816406 12.34375 -8.828125 C 14.125 -11.367188 15.835938 -15.046875 17.484375 -19.859375 C 17.609375 -20.867188 17.75 -21.847656 17.90625 -22.796875 C 18.0625 -23.742188 18.269531 -24.695312 18.53125 -25.65625 Z M 18.53125 -25.65625 "/></g></g></g><g fill="#464646" fill-opacity="1"><g transform="translate(312.920283, 85.49521)"><g><path d="M 34.296875 -19.46875 C 34.671875 -19.851562 35.019531 -19.851562 35.34375 -19.46875 C 35.59375 -19.15625 35.5625 -18.84375 35.25 -18.53125 C 34.738281 -18.019531 33.878906 -17.207031 32.671875 -16.09375 C 31.472656 -14.988281 30.066406 -13.753906 28.453125 -12.390625 C 26.835938 -11.035156 25.140625 -9.722656 23.359375 -8.453125 C 21.585938 -7.191406 19.832031 -6.144531 18.09375 -5.3125 C 16.351562 -4.488281 14.785156 -4.078125 13.390625 -4.078125 L 13.109375 -4.078125 C 11.335938 -4.210938 10.070312 -4.941406 9.3125 -6.265625 C 8.925781 -6.898438 8.671875 -7.691406 8.546875 -8.640625 L 8.546875 -8.828125 C 8.421875 -10.285156 8.578125 -11.726562 9.015625 -13.15625 C 9.460938 -14.582031 9.957031 -15.785156 10.5 -16.765625 C 11.039062 -17.742188 11.34375 -18.265625 11.40625 -18.328125 C 11.65625 -18.773438 11.96875 -18.875 12.34375 -18.625 C 12.726562 -18.363281 12.796875 -18.046875 12.546875 -17.671875 C 12.546875 -17.671875 12.304688 -17.191406 11.828125 -16.234375 C 11.347656 -15.285156 10.882812 -14.144531 10.4375 -12.8125 C 10 -11.488281 9.8125 -10.195312 9.875 -8.9375 C 9.9375 -8.738281 10.015625 -8.460938 10.109375 -8.109375 C 10.210938 -7.765625 10.390625 -7.5625 10.640625 -7.5 C 11.148438 -7.4375 11.910156 -7.878906 12.921875 -8.828125 C 13.929688 -9.785156 15.019531 -11.117188 16.1875 -12.828125 C 17.363281 -14.535156 18.425781 -16.46875 19.375 -18.625 C 21.019531 -22.164062 21.9375 -25.265625 22.125 -27.921875 C 22.320312 -30.585938 22.226562 -32.140625 21.84375 -32.578125 C 21.53125 -32.960938 20.992188 -33.078125 20.234375 -32.921875 C 19.472656 -32.765625 18.835938 -32.523438 18.328125 -32.203125 C 18.328125 -32.140625 18.3125 -32.109375 18.28125 -32.109375 C 18.25 -32.109375 18.234375 -32.109375 18.234375 -32.109375 C 16.785156 -30.835938 15.1875 -29.171875 13.4375 -27.109375 C 11.695312 -25.054688 10.128906 -22.84375 8.734375 -20.46875 C 7.347656 -18.09375 6.398438 -15.765625 5.890625 -13.484375 C 4.617188 -7.085938 3.539062 0.207031 2.65625 8.40625 C 1.769531 16.601562 1.328125 25.203125 1.328125 34.203125 C 1.328125 34.898438 1.085938 35.515625 0.609375 36.046875 C 0.140625 36.585938 -0.441406 36.859375 -1.140625 36.859375 C -2.273438 36.859375 -3.253906 36.445312 -4.078125 35.625 C -5.097656 34.488281 -5.609375 33.128906 -5.609375 31.546875 C -5.546875 26.472656 -5.289062 20.941406 -4.84375 14.953125 C -4.40625 8.972656 -3.753906 2.914062 -2.890625 -3.21875 C -2.035156 -9.363281 -0.960938 -15.269531 0.328125 -20.9375 C 1.628906 -26.613281 3.132812 -31.632812 4.84375 -36 C 5.15625 -36.695312 5.691406 -37.140625 6.453125 -37.328125 C 7.210938 -37.460938 7.847656 -37.210938 8.359375 -36.578125 L 9.40625 -35.25 C 10.675781 -33.726562 10.960938 -32.046875 10.265625 -30.203125 C 9.816406 -29.003906 9.367188 -27.644531 8.921875 -26.125 C 8.484375 -24.601562 8.039062 -22.957031 7.59375 -21.1875 C 8.289062 -22.320312 9.035156 -23.472656 9.828125 -24.640625 C 10.617188 -25.816406 11.488281 -26.976562 12.4375 -28.125 C 13.132812 -29.007812 13.925781 -29.894531 14.8125 -30.78125 C 15.707031 -31.664062 16.566406 -32.457031 17.390625 -33.15625 L 17.578125 -33.34375 C 18.460938 -34.039062 19.285156 -34.609375 20.046875 -35.046875 C 20.804688 -35.492188 21.472656 -35.71875 22.046875 -35.71875 C 24.128906 -35.71875 25.675781 -34.957031 26.6875 -33.4375 C 28.90625 -30.394531 28.53125 -25.015625 25.5625 -17.296875 C 24.726562 -15.203125 23.882812 -13.410156 23.03125 -11.921875 C 22.175781 -10.429688 21.335938 -9.210938 20.515625 -8.265625 C 22.734375 -9.660156 25.078125 -11.382812 27.546875 -13.4375 C 30.015625 -15.5 32.265625 -17.507812 34.296875 -19.46875 Z M 34.296875 -19.46875 "/></g></g></g><g fill="#464646" fill-opacity="1"><g transform="translate(346.739893, 85.49521)"><g><path d="M 34.484375 -19.671875 C 34.796875 -19.597656 35.019531 -19.3125 35.15625 -18.8125 C 35.15625 -18.8125 34.992188 -18.160156 34.671875 -16.859375 C 34.359375 -15.566406 33.945312 -13.9375 33.4375 -11.96875 C 32.9375 -10.007812 32.335938 -7.953125 31.640625 -5.796875 C 28.722656 2.691406 25.804688 6.9375 22.890625 6.9375 L 22.515625 6.9375 C 20.929688 6.75 19.664062 5.832031 18.71875 4.1875 C 17.894531 2.726562 17.304688 0.953125 16.953125 -1.140625 C 16.609375 -3.234375 16.4375 -5.398438 16.4375 -7.640625 C 16.4375 -9.890625 16.5 -11.9375 16.625 -13.78125 C 16.175781 -12.570312 15.679688 -11.507812 15.140625 -10.59375 C 14.609375 -9.675781 14.085938 -8.835938 13.578125 -8.078125 C 13.578125 -8.015625 13.5625 -7.984375 13.53125 -7.984375 C 13.5 -7.984375 13.484375 -7.953125 13.484375 -7.890625 C 13.296875 -7.828125 13.171875 -7.695312 13.109375 -7.5 C 11.972656 -5.914062 10.816406 -4.789062 9.640625 -4.125 C 8.472656 -3.46875 7.347656 -3.140625 6.265625 -3.140625 C 5.828125 -3.140625 5.476562 -3.171875 5.21875 -3.234375 C 4.84375 -3.359375 4.226562 -3.609375 3.375 -3.984375 C 2.519531 -4.367188 1.710938 -5.128906 0.953125 -6.265625 C 0.316406 -7.410156 -0.1875 -9.117188 -0.5625 -11.390625 C -0.945312 -13.671875 -0.664062 -16.773438 0.28125 -20.703125 C 1.164062 -23.867188 2.222656 -26.367188 3.453125 -28.203125 C 4.691406 -30.046875 5.945312 -31.441406 7.21875 -32.390625 C 8.488281 -33.335938 9.566406 -33.972656 10.453125 -34.296875 C 12.472656 -35.054688 14.242188 -35.117188 15.765625 -34.484375 C 17.609375 -33.597656 18.8125 -31.984375 19.375 -29.640625 L 19.375 -29.453125 C 19.945312 -31.535156 20.582031 -33.460938 21.28125 -35.234375 C 21.976562 -37.015625 22.644531 -38.539062 23.28125 -39.8125 C 23.71875 -40.375 24.253906 -40.6875 24.890625 -40.75 C 25.648438 -40.75 26.285156 -40.5 26.796875 -40 L 28.21875 -38.671875 C 28.976562 -38.035156 29.46875 -37.273438 29.6875 -36.390625 C 29.90625 -35.503906 29.859375 -34.679688 29.546875 -33.921875 C 28.148438 -30.617188 26.894531 -26.894531 25.78125 -22.75 C 24.675781 -18.601562 23.875 -14.472656 23.375 -10.359375 C 22.738281 -5.734375 22.5625 -2.390625 22.84375 -0.328125 C 23.132812 1.722656 23.4375 2.847656 23.75 3.046875 C 24.445312 3.421875 25.0625 3.367188 25.59375 2.890625 C 26.132812 2.421875 26.535156 2.0625 26.796875 1.8125 C 27.742188 0.09375 28.660156 -1.984375 29.546875 -4.421875 C 30.429688 -6.859375 31.222656 -9.390625 31.921875 -12.015625 C 32.617188 -14.640625 33.1875 -17.0625 33.625 -19.28125 C 33.75 -19.664062 34.035156 -19.796875 34.484375 -19.671875 Z M 18.53125 -25.65625 C 18.53125 -26.976562 18.367188 -28.179688 18.046875 -29.265625 C 17.859375 -29.765625 17.539062 -30.25 17.09375 -30.71875 C 16.65625 -31.195312 16.179688 -31.472656 15.671875 -31.546875 C 15.234375 -31.609375 14.503906 -31.367188 13.484375 -30.828125 C 12.472656 -30.285156 11.425781 -29.160156 10.34375 -27.453125 C 9.269531 -25.742188 8.382812 -23.179688 7.6875 -19.765625 C 6.9375 -16.148438 6.578125 -13.472656 6.609375 -11.734375 C 6.640625 -9.992188 6.859375 -8.851562 7.265625 -8.3125 C 7.679688 -7.769531 8.015625 -7.40625 8.265625 -7.21875 C 8.640625 -6.96875 9.222656 -6.921875 10.015625 -7.078125 C 10.804688 -7.234375 11.582031 -7.816406 12.34375 -8.828125 C 14.125 -11.367188 15.835938 -15.046875 17.484375 -19.859375 C 17.609375 -20.867188 17.75 -21.847656 17.90625 -22.796875 C 18.0625 -23.742188 18.269531 -24.695312 18.53125 -25.65625 Z M 18.53125 -25.65625 "/></g></g></g></g></g></svg>
