<svg xmlns="http://www.w3.org/2000/svg" viewBox="0 0 615 123" role="img" aria-label="Conecta Lapa"><path d="M64 15 C100 6 143 14 152 37 C160 56 150 68 131 69 C119 70 110 67 99 67 C79 67 56 76 47 60 C39 47 47 26 64 15 Z" fill="#38B6FF"/><path d="M55 66 C52 94 78 112 105 110 C133 108 155 92 154 68 C154 96 130 114 102 114 C76 114 53 98 55 66 Z" fill="#E7E5DC"/><path d="M53 64 C51 40 78 33 106 36 C141 39 156 42 154 66 C154 90 133 107 105 107 C81 107 59 96 56 79 C54 73 53 69 53 64 Z" fill="#F1F1F1"/><path d="M116 41 L116 92 C116 99 110 103 103 104 C92 106 84 100 74 104 C66 107 60 108 52 105" fill="none" stroke="#D8CFA6" stroke-width="2.1" stroke-linecap="round" stroke-linejoin="round"/><path d="M105 56 L127 56" fill="none" stroke="#D8CFA6" stroke-width="2.1" stroke-linecap="round"/><ellipse cx="39.00" cy="24.00" rx="3.5" ry="7.4" transform="rotate(0.0 39.00 24.00)" fill="#FFD21E"/><ellipse cx="48.19" cy="26.70" rx="3.5" ry="7.4" transform="rotate(32.7 48.19 26.70)" fill="#FFD21E"/><ellipse cx="54.46" cy="33.94" rx="3.5" ry="7.4" transform="rotate(65.5 54.46 33.94)" fill="#FFD21E"/><ellipse cx="55.83" cy="43.42" rx="3.5" ry="7.4" transform="rotate(98.2 55.83 43.42)" fill="#FFD21E"/><ellipse cx="51.85" cy="52.13" rx="3.5" ry="7.4" transform="rotate(130.9 51.85 52.13)" fill="#FFD21E"/><ellipse cx="43.79" cy="57.31" rx="3.5" ry="7.4" transform="rotate(163.6 43.79 57.31)" fill="#FFD21E"/><ellipse cx="34.21" cy="57.31" rx="3.5" ry="7.4" transform="rotate(196.4 34.21 57.31)" fill="#FFD21E"/><ellipse cx="26.15" cy="52.13" rx="3.5" ry="7.4" transform="rotate(229.1 26.15 52.13)" fill="#FFD21E"/><ellipse cx="22.17" cy="43.42" rx="3.5" ry="7.4" transform="rotate(261.8 22.17 43.42)" fill="#FFD21E"/><ellipse cx="23.54" cy="33.94" rx="3.5" ry="7.4" transform="rotate(294.5 23.54 33.94)" fill="#FFD21E"/><ellipse cx="29.81" cy="26.70" rx="3.5" ry="7.4" transform="rotate(327.3 29.81 26.70)" fill="#FFD21E"/><path d="M39.60 41.00 L39.69 41.14 L39.74 41.31 L39.75 41.50 L39.71 41.71 L39.62 41.93 L39.46 42.12 L39.26 42.29 L39.00 42.42 L38.70 42.49 L38.38 42.50 L38.04 42.44 L37.71 42.29 L37.39 42.07 L37.12 41.78 L36.90 41.42 L36.76 41.00 L36.70 40.54 L36.74 40.06 L36.88 39.58 L37.13 39.13 L37.47 38.71 L37.91 38.36 L38.42 38.10 L39.00 37.94 L39.62 37.90 L40.25 37.98 L40.87 38.20 L41.45 38.55 L41.97 39.02 L42.40 39.59 L42.70 40.26 L42.88 41.00 L42.91 41.78 L42.77 42.56 L42.48 43.33 L42.03 44.03 L41.44 44.65 L40.72 45.15 L39.90 45.51 L39.00 45.70 L38.06 45.71 L37.12 45.53 L36.22 45.16 L35.39 44.61 L34.67 43.90 L34.09 43.03 L33.69 42.06 L33.48 41.00 L33.49 39.90 L33.71 38.81 L34.15 37.76 L34.81 36.81 L35.65 35.98 L36.65 35.33 L37.78 34.88 L39.00 34.66 L40.26 34.68 L41.50 34.95 L42.69 35.47 L43.77 36.23 L44.70 37.19 L45.43 38.34 L45.92 39.62 L46.16 41.00 L46.12 42.42 L45.80 43.82 L45.21 45.15 L44.35 46.35 L43.26 47.38 L41.98 48.18 L40.54 48.73 L39.00 48.98 L37.42 48.93 L35.87 48.56 L34.40 47.89 L33.07 46.93 L31.94 45.72 L31.06 44.29 L30.47 42.70 L30.20 41.00" fill="none" stroke="#EFAF00" stroke-width="2.6" stroke-linecap="round"/><circle cx="39.0" cy="41.0" r="10.5" fill="#FFD21E"/><g fill="#000000" fill-opacity="1"><g transform="translate(178.872515, 85.277744)"><g><path d="M 24.109375 0.4375 C 20.898438 0.4375 17.945312 -0.113281 15.25 -1.21875 C 12.5625 -2.320312 10.234375 -3.882812 8.265625 -5.90625 C 6.304688 -7.9375 4.789062 -10.304688 3.71875 -13.015625 C 2.65625 -15.734375 2.125 -18.722656 2.125 -21.984375 C 2.125 -25.328125 2.664062 -28.363281 3.75 -31.09375 C 4.84375 -33.832031 6.378906 -36.191406 8.359375 -38.171875 C 10.347656 -40.160156 12.6875 -41.695312 15.375 -42.78125 C 18.070312 -43.863281 20.984375 -44.40625 24.109375 -44.40625 C 27.453125 -44.40625 30.476562 -43.820312 33.1875 -42.65625 C 35.90625 -41.488281 38.222656 -39.828125 40.140625 -37.671875 C 42.066406 -35.523438 43.488281 -32.96875 44.40625 -30 L 34.140625 -26.8125 C 33.265625 -29.644531 31.957031 -31.675781 30.21875 -32.90625 C 28.488281 -34.144531 26.429688 -34.765625 24.046875 -34.765625 C 21.835938 -34.765625 19.894531 -34.242188 18.21875 -33.203125 C 16.550781 -32.160156 15.25 -30.675781 14.3125 -28.75 C 13.375 -26.832031 12.90625 -24.578125 12.90625 -21.984375 C 12.90625 -19.398438 13.363281 -17.144531 14.28125 -15.21875 C 15.195312 -13.300781 16.488281 -11.804688 18.15625 -10.734375 C 19.832031 -9.671875 21.773438 -9.140625 23.984375 -9.140625 C 26.535156 -9.140625 28.6875 -9.804688 30.4375 -11.140625 C 32.195312 -12.484375 33.535156 -14.488281 34.453125 -17.15625 L 44.84375 -14.71875 C 44.007812 -11.582031 42.597656 -8.875 40.609375 -6.59375 C 38.628906 -4.320312 36.226562 -2.582031 33.40625 -1.375 C 30.59375 -0.164062 27.492188 0.4375 24.109375 0.4375 Z M 24.109375 0.4375 "/></g></g></g><g fill="#000000" fill-opacity="1"><g transform="translate(225.971351, 85.277744)"><g><path d="M 19.796875 0.4375 C 16.367188 0.4375 13.296875 -0.28125 10.578125 -1.71875 C 7.867188 -3.164062 5.726562 -5.242188 4.15625 -7.953125 C 2.59375 -10.671875 1.8125 -13.847656 1.8125 -17.484375 C 1.8125 -21.148438 2.601562 -24.316406 4.1875 -26.984375 C 5.78125 -29.660156 7.941406 -31.726562 10.671875 -33.1875 C 13.410156 -34.65625 16.492188 -35.390625 19.921875 -35.390625 C 23.390625 -35.390625 26.488281 -34.664062 29.21875 -33.21875 C 31.957031 -31.78125 34.117188 -29.710938 35.703125 -27.015625 C 37.285156 -24.328125 38.078125 -21.148438 38.078125 -17.484375 C 38.078125 -13.847656 37.265625 -10.671875 35.640625 -7.953125 C 34.015625 -5.242188 31.820312 -3.164062 29.0625 -1.71875 C 26.3125 -0.28125 23.222656 0.4375 19.796875 0.4375 Z M 19.796875 -8.703125 C 21.085938 -8.703125 22.304688 -9.023438 23.453125 -9.671875 C 24.609375 -10.328125 25.539062 -11.300781 26.25 -12.59375 C 26.957031 -13.882812 27.3125 -15.515625 27.3125 -17.484375 C 27.3125 -19.484375 26.957031 -21.117188 26.25 -22.390625 C 25.539062 -23.660156 24.628906 -24.609375 23.515625 -25.234375 C 22.410156 -25.867188 21.210938 -26.1875 19.921875 -26.1875 C 18.628906 -26.1875 17.425781 -25.867188 16.3125 -25.234375 C 15.207031 -24.609375 14.3125 -23.660156 13.625 -22.390625 C 12.9375 -21.117188 12.59375 -19.484375 12.59375 -17.484375 C 12.59375 -15.515625 12.914062 -13.882812 13.5625 -12.59375 C 14.207031 -11.300781 15.082031 -10.328125 16.1875 -9.671875 C 17.300781 -9.023438 18.503906 -8.703125 19.796875 -8.703125 Z M 19.796875 -8.703125 "/></g></g></g><g fill="#000000" fill-opacity="1"><g transform="translate(265.867572, 85.277744)"><g><path d="M 3.890625 0 L 3.890625 -34.953125 L 14.46875 -34.953125 L 14.46875 -27.5 C 14.96875 -29.125 15.78125 -30.519531 16.90625 -31.6875 C 18.039062 -32.863281 19.347656 -33.773438 20.828125 -34.421875 C 22.304688 -35.066406 23.84375 -35.390625 25.4375 -35.390625 C 28.101562 -35.390625 30.414062 -34.785156 32.375 -33.578125 C 34.34375 -32.367188 35.867188 -30.65625 36.953125 -28.4375 C 38.046875 -26.226562 38.59375 -23.597656 38.59375 -20.546875 L 38.59375 0 L 28 0 L 28 -18.859375 C 28 -21.234375 27.394531 -23.109375 26.1875 -24.484375 C 24.976562 -25.867188 23.347656 -26.5625 21.296875 -26.5625 C 19.921875 -26.5625 18.71875 -26.195312 17.6875 -25.46875 C 16.664062 -24.738281 15.875 -23.742188 15.3125 -22.484375 C 14.75 -21.234375 14.46875 -19.816406 14.46875 -18.234375 L 14.46875 0 Z M 3.890625 0 "/></g></g></g><g fill="#000000" fill-opacity="1"><g transform="translate(308.081161, 85.277744)"><g><path d="M 20.921875 0.4375 C 18.367188 0.4375 15.929688 0.0390625 13.609375 -0.75 C 11.296875 -1.539062 9.253906 -2.695312 7.484375 -4.21875 C 5.710938 -5.75 4.3125 -7.597656 3.28125 -9.765625 C 2.257812 -11.941406 1.75 -14.425781 1.75 -17.21875 C 1.75 -19.894531 2.238281 -22.335938 3.21875 -24.546875 C 4.207031 -26.765625 5.546875 -28.6875 7.234375 -30.3125 C 8.921875 -31.945312 10.878906 -33.203125 13.109375 -34.078125 C 15.347656 -34.953125 17.722656 -35.390625 20.234375 -35.390625 C 22.273438 -35.390625 24.222656 -35.117188 26.078125 -34.578125 C 27.941406 -34.035156 29.613281 -33.238281 31.09375 -32.1875 C 32.582031 -31.144531 33.753906 -29.914062 34.609375 -28.5 C 35.460938 -27.082031 35.890625 -25.492188 35.890625 -23.734375 C 35.890625 -21.523438 35.265625 -19.6875 34.015625 -18.21875 C 32.765625 -16.757812 31.125 -15.613281 29.09375 -14.78125 C 27.070312 -13.945312 24.859375 -13.351562 22.453125 -13 C 20.054688 -12.644531 17.6875 -12.488281 15.34375 -12.53125 C 15.050781 -12.53125 14.707031 -12.539062 14.3125 -12.5625 C 13.914062 -12.582031 13.550781 -12.601562 13.21875 -12.625 C 12.882812 -12.644531 12.632812 -12.65625 12.46875 -12.65625 C 12.71875 -11.695312 13.25 -10.828125 14.0625 -10.046875 C 14.875 -9.273438 15.90625 -8.660156 17.15625 -8.203125 C 18.414062 -7.742188 19.710938 -7.515625 21.046875 -7.515625 C 22.378906 -7.515625 23.660156 -7.742188 24.890625 -8.203125 C 26.128906 -8.660156 27.25 -9.242188 28.25 -9.953125 C 29.25 -10.671875 30.101562 -11.46875 30.8125 -12.34375 L 37.578125 -7.015625 C 36.328125 -5.347656 34.800781 -3.957031 33 -2.84375 C 31.207031 -1.738281 29.273438 -0.914062 27.203125 -0.375 C 25.140625 0.164062 23.046875 0.4375 20.921875 0.4375 Z M 15.40625 -19.484375 C 16.53125 -19.484375 17.695312 -19.546875 18.90625 -19.671875 C 20.125 -19.796875 21.242188 -20.015625 22.265625 -20.328125 C 23.285156 -20.640625 24.117188 -21.078125 24.765625 -21.640625 C 25.421875 -22.203125 25.75 -22.921875 25.75 -23.796875 C 25.75 -24.515625 25.492188 -25.144531 24.984375 -25.6875 C 24.484375 -26.226562 23.816406 -26.644531 22.984375 -26.9375 C 22.148438 -27.226562 21.253906 -27.375 20.296875 -27.375 C 18.628906 -27.375 17.164062 -26.976562 15.90625 -26.1875 C 14.65625 -25.394531 13.695312 -24.398438 13.03125 -23.203125 C 12.363281 -22.015625 11.988281 -20.816406 11.90625 -19.609375 C 12.28125 -19.566406 12.789062 -19.535156 13.4375 -19.515625 C 14.082031 -19.492188 14.738281 -19.484375 15.40625 -19.484375 Z M 15.40625 -19.484375 "/></g></g></g><g fill="#000000" fill-opacity="1"><g transform="translate(346.787384, 85.277744)"><g><path d="M 19.296875 0.4375 C 15.828125 0.4375 12.773438 -0.300781 10.140625 -1.78125 C 7.515625 -3.269531 5.457031 -5.347656 3.96875 -8.015625 C 2.488281 -10.691406 1.75 -13.847656 1.75 -17.484375 C 1.75 -21.066406 2.476562 -24.191406 3.9375 -26.859375 C 5.40625 -29.535156 7.453125 -31.625 10.078125 -33.125 C 12.710938 -34.632812 15.785156 -35.390625 19.296875 -35.390625 C 20.960938 -35.390625 22.597656 -35.222656 24.203125 -34.890625 C 25.816406 -34.554688 27.34375 -33.984375 28.78125 -33.171875 C 30.21875 -32.359375 31.5 -31.25 32.625 -29.84375 C 33.757812 -28.445312 34.660156 -26.6875 35.328125 -24.5625 L 25.125 -21.296875 C 24.664062 -22.921875 23.929688 -24.171875 22.921875 -25.046875 C 21.921875 -25.929688 20.648438 -26.375 19.109375 -26.375 C 17.804688 -26.375 16.664062 -26.039062 15.6875 -25.375 C 14.707031 -24.707031 13.945312 -23.710938 13.40625 -22.390625 C 12.863281 -21.078125 12.59375 -19.441406 12.59375 -17.484375 C 12.59375 -15.597656 12.863281 -13.976562 13.40625 -12.625 C 13.945312 -11.269531 14.707031 -10.234375 15.6875 -9.515625 C 16.664062 -8.804688 17.804688 -8.453125 19.109375 -8.453125 C 20.984375 -8.453125 22.410156 -9.015625 23.390625 -10.140625 C 24.378906 -11.273438 25.019531 -12.65625 25.3125 -14.28125 L 35.828125 -11.78125 C 35.285156 -9.6875 34.3125 -7.707031 32.90625 -5.84375 C 31.507812 -3.988281 29.679688 -2.476562 27.421875 -1.3125 C 25.171875 -0.144531 22.460938 0.4375 19.296875 0.4375 Z M 19.296875 0.4375 "/></g></g></g><g fill="#000000" fill-opacity="1"><g transform="translate(384.428876, 85.277744)"><g><path d="M 18.796875 0.4375 C 14.953125 0.4375 12.003906 -0.613281 9.953125 -2.71875 C 7.910156 -4.832031 6.890625 -7.894531 6.890625 -11.90625 L 6.890625 -26.375 L 1.3125 -26.375 L 1.3125 -34.953125 L 24.4375 -34.953125 L 24.4375 -26.375 L 17.484375 -26.375 L 17.484375 -11.78125 C 17.484375 -10.769531 17.804688 -9.984375 18.453125 -9.421875 C 19.097656 -8.859375 19.878906 -8.578125 20.796875 -8.578125 C 21.210938 -8.578125 21.597656 -8.628906 21.953125 -8.734375 C 22.304688 -8.835938 22.648438 -8.992188 22.984375 -9.203125 L 25.625 -1.4375 C 24.613281 -0.894531 23.554688 -0.445312 22.453125 -0.09375 C 21.347656 0.257812 20.128906 0.4375 18.796875 0.4375 Z M 4.078125 -32.140625 L 4.078125 -34.953125 C 4.992188 -34.953125 5.742188 -35.242188 6.328125 -35.828125 C 6.910156 -36.410156 7.203125 -37.160156 7.203125 -38.078125 L 7.203125 -43.46875 L 17.484375 -43.46875 L 17.484375 -39.71875 C 17.484375 -39.132812 17.332031 -38.492188 17.03125 -37.796875 C 16.738281 -37.109375 16.289062 -36.503906 15.6875 -35.984375 C 15.082031 -35.460938 14.363281 -35.117188 13.53125 -34.953125 Z M 4.078125 -32.140625 "/></g></g></g><g fill="#000000" fill-opacity="1"><g transform="translate(412.111967, 85.277744)"><g><path d="M 16.84375 0.4375 C 13.800781 0.4375 11.140625 -0.351562 8.859375 -1.9375 C 6.585938 -3.53125 4.832031 -5.671875 3.59375 -8.359375 C 2.363281 -11.054688 1.75 -14.097656 1.75 -17.484375 C 1.75 -20.816406 2.363281 -23.835938 3.59375 -26.546875 C 4.832031 -29.265625 6.585938 -31.414062 8.859375 -33 C 11.140625 -34.59375 13.800781 -35.390625 16.84375 -35.390625 C 19.519531 -35.390625 21.847656 -34.664062 23.828125 -33.21875 C 25.816406 -31.78125 27.207031 -29.769531 28 -27.1875 L 28 -34.953125 L 38.59375 -34.953125 L 38.59375 0 L 33.390625 0 C 31.710938 0 30.394531 -0.46875 29.4375 -1.40625 C 28.476562 -2.34375 28 -3.648438 28 -5.328125 L 28 -7.703125 C 27.207031 -5.160156 25.816406 -3.164062 23.828125 -1.71875 C 21.847656 -0.28125 19.519531 0.4375 16.84375 0.4375 Z M 20.296875 -8.828125 C 21.671875 -8.828125 22.941406 -9.160156 24.109375 -9.828125 C 25.285156 -10.503906 26.226562 -11.488281 26.9375 -12.78125 C 27.644531 -14.070312 28 -15.640625 28 -17.484375 C 28 -19.273438 27.644531 -20.816406 26.9375 -22.109375 C 26.226562 -23.398438 25.285156 -24.398438 24.109375 -25.109375 C 22.941406 -25.828125 21.671875 -26.1875 20.296875 -26.1875 C 18.878906 -26.1875 17.582031 -25.828125 16.40625 -25.109375 C 15.238281 -24.398438 14.3125 -23.398438 13.625 -22.109375 C 12.9375 -20.816406 12.59375 -19.273438 12.59375 -17.484375 C 12.59375 -15.640625 12.9375 -14.070312 13.625 -12.78125 C 14.3125 -11.488281 15.25 -10.503906 16.4375 -9.828125 C 17.632812 -9.160156 18.921875 -8.828125 20.296875 -8.828125 Z M 20.296875 -8.828125 "/></g></g></g><g fill="#000000" fill-opacity="1"><g transform="translate(454.646074, 85.277744)"><g><path d="M 10.65625 -43.40625 L 10.65625 -4.703125 L 25.875 -4.703125 L 25.875 0 L 4.890625 0 L 4.890625 -43.40625 Z M 10.65625 -43.40625 "/></g></g></g><g fill="#000000" fill-opacity="1"><g transform="translate(481.76548, 85.277744)"><g><path d="M 18.796875 0.4375 C 15.828125 0.4375 13.117188 -0.300781 10.671875 -1.78125 C 8.234375 -3.269531 6.289062 -5.335938 4.84375 -7.984375 C 3.40625 -10.640625 2.6875 -13.71875 2.6875 -17.21875 C 2.6875 -20.726562 3.40625 -23.804688 4.84375 -26.453125 C 6.289062 -29.109375 8.234375 -31.164062 10.671875 -32.625 C 13.117188 -34.09375 15.828125 -34.828125 18.796875 -34.828125 C 21.835938 -34.828125 24.503906 -34.101562 26.796875 -32.65625 C 29.097656 -31.21875 30.753906 -29.269531 31.765625 -26.8125 L 31.765625 -34.390625 L 37.515625 -34.390625 L 37.515625 0 L 35.140625 0 C 34.097656 0 33.273438 -0.3125 32.671875 -0.9375 C 32.066406 -1.5625 31.765625 -2.375 31.765625 -3.375 L 31.765625 -7.640625 C 30.710938 -5.179688 29.023438 -3.21875 26.703125 -1.75 C 24.390625 -0.289062 21.753906 0.4375 18.796875 0.4375 Z M 20.171875 -4.578125 C 22.253906 -4.578125 24.171875 -5.078125 25.921875 -6.078125 C 27.679688 -7.078125 29.09375 -8.523438 30.15625 -10.421875 C 31.226562 -12.328125 31.765625 -14.59375 31.765625 -17.21875 C 31.765625 -19.894531 31.226562 -22.160156 30.15625 -24.015625 C 29.09375 -25.878906 27.679688 -27.3125 25.921875 -28.3125 C 24.171875 -29.3125 22.253906 -29.8125 20.171875 -29.8125 C 18.078125 -29.8125 16.15625 -29.3125 14.40625 -28.3125 C 12.65625 -27.3125 11.242188 -25.878906 10.171875 -24.015625 C 9.109375 -22.160156 8.578125 -19.894531 8.578125 -17.21875 C 8.578125 -14.59375 9.109375 -12.328125 10.171875 -10.421875 C 11.242188 -8.523438 12.65625 -7.078125 14.40625 -6.078125 C 16.15625 -5.078125 18.078125 -4.578125 20.171875 -4.578125 Z M 20.171875 -4.578125 "/></g></g></g><g fill="#000000" fill-opacity="1"><g transform="translate(524.166963, 85.277744)"><g><path d="M 23.609375 0.4375 C 20.691406 0.4375 18.0625 -0.289062 15.71875 -1.75 C 13.382812 -3.21875 11.695312 -5.179688 10.65625 -7.640625 L 10.65625 16.28125 L 4.890625 16.28125 L 4.890625 -34.390625 L 10.65625 -34.390625 L 10.65625 -26.8125 C 11.695312 -29.269531 13.363281 -31.21875 15.65625 -32.65625 C 17.957031 -34.101562 20.609375 -34.828125 23.609375 -34.828125 C 26.578125 -34.828125 29.28125 -34.09375 31.71875 -32.625 C 34.164062 -31.164062 36.109375 -29.109375 37.546875 -26.453125 C 38.992188 -23.804688 39.71875 -20.726562 39.71875 -17.21875 C 39.71875 -13.71875 38.992188 -10.640625 37.546875 -7.984375 C 36.109375 -5.335938 34.164062 -3.269531 31.71875 -1.78125 C 29.28125 -0.300781 26.578125 0.4375 23.609375 0.4375 Z M 22.234375 -4.578125 C 24.328125 -4.578125 26.25 -5.078125 28 -6.078125 C 29.75 -7.078125 31.15625 -8.523438 32.21875 -10.421875 C 33.289062 -12.328125 33.828125 -14.59375 33.828125 -17.21875 C 33.828125 -19.894531 33.289062 -22.160156 32.21875 -24.015625 C 31.15625 -25.878906 29.75 -27.3125 28 -28.3125 C 26.25 -29.3125 24.328125 -29.8125 22.234375 -29.8125 C 20.191406 -29.8125 18.28125 -29.3125 16.5 -28.3125 C 14.726562 -27.3125 13.3125 -25.878906 12.25 -24.015625 C 11.1875 -22.160156 10.65625 -19.894531 10.65625 -17.21875 C 10.65625 -14.59375 11.1875 -12.328125 12.25 -10.421875 C 13.3125 -8.523438 14.726562 -7.078125 16.5 -6.078125 C 18.28125 -5.078125 20.191406 -4.578125 22.234375 -4.578125 Z M 22.234375 -4.578125 "/></g></g></g><g fill="#000000" fill-opacity="1"><g transform="translate(566.631075, 85.277744)"><g><path d="M 18.796875 0.4375 C 15.828125 0.4375 13.117188 -0.300781 10.671875 -1.78125 C 8.234375 -3.269531 6.289062 -5.335938 4.84375 -7.984375 C 3.40625 -10.640625 2.6875 -13.71875 2.6875 -17.21875 C 2.6875 -20.726562 3.40625 -23.804688 4.84375 -26.453125 C 6.289062 -29.109375 8.234375 -31.164062 10.671875 -32.625 C 13.117188 -34.09375 15.828125 -34.828125 18.796875 -34.828125 C 21.835938 -34.828125 24.503906 -34.101562 26.796875 -32.65625 C 29.097656 -31.21875 30.753906 -29.269531 31.765625 -26.8125 L 31.765625 -34.390625 L 37.515625 -34.390625 L 37.515625 0 L 35.140625 0 C 34.097656 0 33.273438 -0.3125 32.671875 -0.9375 C 32.066406 -1.5625 31.765625 -2.375 31.765625 -3.375 L 31.765625 -7.640625 C 30.710938 -5.179688 29.023438 -3.21875 26.703125 -1.75 C 24.390625 -0.289062 21.753906 0.4375 18.796875 0.4375 Z M 20.171875 -4.578125 C 22.253906 -4.578125 24.171875 -5.078125 25.921875 -6.078125 C 27.679688 -7.078125 29.09375 -8.523438 30.15625 -10.421875 C 31.226562 -12.328125 31.765625 -14.59375 31.765625 -17.21875 C 31.765625 -19.894531 31.226562 -22.160156 30.15625 -24.015625 C 29.09375 -25.878906 27.679688 -27.3125 25.921875 -28.3125 C 24.171875 -29.3125 22.253906 -29.8125 20.171875 -29.8125 C 18.078125 -29.8125 16.15625 -29.3125 14.40625 -28.3125 C 12.65625 -27.3125 11.242188 -25.878906 10.171875 -24.015625 C 9.109375 -22.160156 8.578125 -19.894531 8.578125 -17.21875 C 8.578125 -14.59375 9.109375 -12.328125 10.171875 -10.421875 C 11.242188 -8.523438 12.65625 -7.078125 14.40625 -6.078125 C 16.15625 -5.078125 18.078125 -4.578125 20.171875 -4.578125 Z M 20.171875 -4.578125 "/></g></g></g></svg>